<?xml version="1.0" encoding="UTF-8"?>
<svg version="1.1" viewBox="0 0 2048 1947" width="592" height="563"
	xmlns="http://www.w3.org/2000/svg">
	<path transform="translate(0)" d="m0 0h2048v1947h-2048z" fill="#FEFEFE"/>
	<path transform="translate(783,840)" d="m0 0 21 1 19 4 21 8 14 8 13 10 10 9 8 9 12 18 3 6 7-6 12-12 11-9 14-9 16-8 15-5 16-3 10-1h14l21 3 16 5 12 5 16 9 13 10 15 15 10 14 9 17 6 17 3 12 1 7v31l-4 20-5 15-7 15 18 10 12 9 13 12 11 14 9 15 8 19 4 15 2 13v22l-3 19-6 19-8 16-9 14-12 14-29 29 15 9 13 10 12 11 10 13 9 15 7 16 5 18 2 16v19l-3 19-6 20-8 16-7 11-11 13-358 358-12 7-6 2-10 1-13-2-12-6-10-10-6-11-2-10v-9l3-12 6-10 9-10 24-24h2l2-4 5-4 5-6h2l2-4 3-3h2l2-4 3-3h2l1-3h2l2-4 3-3h2l2-4 3-3h2l2-4 10-10h2l2-4 3-3h2l2-4 6-6h2l2-4 3-3h2l2-4 17-17h2l2-4 3-3h2l2-4 6-6h2l2-4 17-17h2l2-4 3-3h2l2-4 6-6h2l2-4 6-5 7-8 4-4h2l2-4 3-3h2l2-4 3-3h2l1-3h2l2-4 5-4 5-6 14-14h2l2-4 3-3h2l2-4 6-6h2l2-4 7-6 5-5 5-6 8-7 6-7 8-7 36-36 7-9 4-8 2-7 1-11-2-10-4-10-9-10-9-6-9-3-13-1-14 3-11 7-239 239-10 7-12 4h-14l-13-4-9-6-8-9-5-10-2-8v-11l4-13 6-10 358-358 7-14 1-5v-17l-5-13-7-9-10-7-8-3-6-1h-12l-11 3-10 6-4 4h-2l-1 3-4 4h-2l-1 3-4 4h-2l-2 4-3 3h-2l-2 4-3 3h-2l-2 4-3 3h-2l-2 4-13 13h-2l-2 4-3 3h-2l-1 3h-2l-2 4h-2l-2 4-3 3h-2l-2 4-3 3h-2l-2 4-13 13h-2l-2 4-62 62h-2l-2 4-3 3h-2l-2 4-27 27h-2l-2 4-3 3h-2l-2 4-13 13h-2l-2 4-3 3h-2l-2 4-3 3h-2l-1 3h-2l-1 3-10 10-3 1-1 3-4 4h-2l-1 3-4 4h-2l-2 4-15 15-10 7-9 4-5 1h-14l-10-3-10-6-8-8-5-8-3-11v-14l3-10 6-10 357-357 6-10 3-8 1-5v-12l-4-13-6-9-9-8-11-5-6-1h-12l-12 3-11 7-373 373-9 6-9 4-4 1h-15l-10-3-11-7-8-9-5-10-2-9v-10l3-11 5-9 9-10 267-267 5-9 3-9v-18l-5-13-6-8-8-6-8-4-9-2h-12l-13 4-9 6-13 12-16 17-13 12-9 9-7 8-22 22-8 7-14 14-5 6-5 5-10 9-11 12-7 6-4 5-8 7-156 156-5 6-8 7-8 9-8 7-52 52-7 8-13 11-11 5-9 2-14-1-9-4-9-6-7-7-6-12-2-15-1-258-2-12-7-14-8-9-9-6-12-4-6-1h-9l-14 3-11 6-7 6-9 14-3 10-1 9-1 426-4 13-7 9-9 8-11 5-4 1h-14l-10-3-12-7-7-8-6-11-2-13v-402l1-34 4-19 4-13 10-21 12-17 12-13 14-11 14-9 12-6 21-7 17-3 18-1 20 2 20 5 16 7 13 7 14 10 13 12 11 13 11 18 8 18 5 19 2 14v164l8-7 325-325 13-10 16-9 14-6 15-4 11-2z" fill="#303030"/>
	<path transform="translate(1827,689)" d="m0 0 13 1 11 4 8 6 8 9 5 10 2 12v45l-1 140v649l1 81v58l-2 19-4 20-8 24-9 19-10 16-10 13-11 12-11 11-17 13-20 12-20 9-22 7-22 4-11 1h-683l-12-3-9-5-8-7-7-11-3-10v-12l3-12 6-10 9-9 13-6 4-1 13-1h654l22-1 15-3 13-5 15-8 9-7 9-8 10-13 6-10 7-19 3-15 1-94v-885l3-13 6-10 8-8 8-5 9-3z" fill="#303030"/>
	<path transform="translate(1661,49)" d="m0 0 3 3 8 21 11 26 11 24 10 21 12 22 10 17 16 24 13 17 9 11 18 20 9 9 8 7 13 11 19 14 17 11 21 12 27 14 25 11 25 10 29 11 35 12 1 3-16 6-34 14-33 15-17 8-23 13-16 9-15 10-17 12-12 10-11 9-8 8-6 5-7 8-11 12-10 13-10 14-9 14-8 13-6 11-15 30-11 26-11 28-12 33-7 21-2 7-4-4-6-17-17-42-12-26-8-17-13-23-10-17-8-12-14-19-11-13-7-8-14-15-8-7-14-12-19-14-20-13-21-12-19-10-29-13-39-15-53-18-6-2 2-2 16-6 28-11 31-13 29-13 27-14 25-15 17-12 16-13 8-7 6-6h2l2-4 10-10 11-14 11-15 11-17 13-23 15-30 15-35 18-47 15-43z" fill="#303030"/>
	<path transform="translate(367,201)" d="m0 0h981l13 4 9 6 8 9 5 10 2 8v11l-2 9-5 10-9 10-12 7-9 2-969 1-21 2-15 4-12 5-11 7-10 8-9 9-9 13-8 16-4 12-3 20-1 399-4 12-8 11-11 8-11 4h-17l-11-4-9-6-8-8-6-13-1-5v-403l3-26 6-22 6-16 8-16 8-14 9-12 12-14 9-9 11-9 14-10 15-9 17-8 21-7 13-3 13-2z" fill="#303030"/>
	<path transform="translate(1668,272)" d="m0 0 5 5 10 13 9 11 18 20 17 17 8 7 17 14 18 13 18 12v3l-16 12-11 9-11 10-8 7-21 21-9 11-13 16-12 17-10 16-3-1-14-19-12-14-9-10-24-24-11-9-12-10-18-13-15-10-5-3 5-4 14-11 10-8 14-12 26-26 9-11 11-13 13-18z" fill="#FEFEFE"/>
</svg>
