<?xml version="1.0"?>
<svg version="1.0" xmlns="http://www.w3.org/2000/svg"
 width="860.000000pt" height="847.000000pt" viewBox="0 0 860.000000 847.000000"
 preserveAspectRatio="xMidYMid meet">
 <g class="layer">
  <title>Layer 1</title>
  <g fill="#000000" id="svg_1" transform="matrix(0.1 0 0 -0.1 0 0)">
   <path d="m3505,-974c-98,-32 -185,-99 -239,-184c-117,-186 -76,-462 88,-597c261,-213 636,-65 697,276c35,194 -70,397 -248,482c-60,28 -79,32 -163,34c-58,2 -111,-3 -135,-11zm237,-74c109,-40 191,-127 229,-245c56,-174 -26,-370 -188,-452c-53,-27 -67,-30 -158,-30c-90,0 -105,3 -153,28c-291,153 -269,578 34,697c63,24 172,25 236,2z" id="svg_2"/>
   <path d="m3380,-1513c0,-41 53,-102 115,-132c55,-27 171,-48 150,-28c-5,6 -67,49 -137,97c-118,80 -128,85 -128,63z" id="svg_3"/>
   <path d="m6470,-1169c-98,-21 -174,-81 -217,-169c-22,-47 -27,-71 -27,-137c-1,-105 26,-166 101,-235c87,-80 190,-100 299,-59c201,75 258,348 107,510c-67,72 -176,109 -263,90zm121,-57c67,-20 148,-97 167,-160c50,-170 -48,-334 -211,-351c-107,-11 -197,40 -247,140c-75,150 1,331 158,373c62,17 69,17 133,-2z" id="svg_4"/>
   <path d="m6360,-1553c0,-39 77,-97 148,-110c59,-12 49,-3 -119,106c-24,16 -29,16 -29,4z" id="svg_5"/>
   <path d="m4979,-1220c-250,-39 -457,-220 -546,-475c-25,-73 -27,-93 -28,-225c0,-137 2,-150 32,-233c43,-121 85,-189 174,-277c53,-53 98,-88 155,-117c120,-62 180,-77 314,-77c100,1 126,4 199,29c408,139 594,623 391,1014c-132,254 -419,404 -691,361zm268,-135c380,-128 520,-592 279,-929c-130,-182 -381,-272 -591,-211c-200,58 -363,227 -410,426c-19,82 -19,216 0,298c46,193 201,359 395,422c87,28 232,25 327,-6z" id="svg_6"/>
   <path d="m4695,-2092c12,-54 57,-128 100,-164c62,-50 164,-94 260,-110c48,-9 91,-14 96,-12c6,2 -13,20 -43,40c-266,182 -409,278 -414,278c-3,0 -2,-15 1,-32z" id="svg_7"/>
   <path d="m1400,-1306c-73,-20 -127,-53 -179,-109c-192,-209 -110,-553 156,-646c79,-28 186,-23 263,13c172,79 263,273 216,458c-39,152 -146,257 -294,289c-67,14 -94,13 -162,-5zm238,-89c65,-35 106,-81 141,-155c22,-46 26,-69 26,-140c-1,-71 -5,-94 -28,-141c-32,-66 -99,-132 -165,-162c-68,-31 -179,-29 -247,3c-70,34 -139,107 -165,177c-18,48 -21,73 -18,143c5,105 34,166 108,233c68,61 115,77 215,74c66,-3 90,-8 133,-32z" id="svg_8"/>
   <path d="m1250,-1726c0,-6 7,-33 15,-60c17,-57 63,-117 108,-141c40,-20 97,-34 97,-22c0,12 -219,236 -220,223z" id="svg_9"/>
   <path d="m2462,-1570c-108,-29 -168,-65 -257,-155c-86,-86 -131,-162 -160,-270c-21,-78 -21,-241 -1,-317c77,-289 360,-483 639,-438c342,55 565,402 477,744c-67,263 -276,440 -535,452c-69,3 -107,0 -163,-16zm279,-100c161,-49 285,-183 329,-354c24,-94 25,-158 5,-245c-44,-183 -195,-341 -366,-380c-251,-58 -519,113 -578,369c-18,75 -13,210 9,281c80,260 349,407 601,329z" id="svg_10"/>
   <path d="m2263,-2299c25,-122 142,-219 311,-256c41,-9 86,-15 101,-13c23,3 -5,24 -182,144c-263,178 -237,164 -230,125z" id="svg_11"/>
   <path d="m6133,-2040c-131,-27 -233,-136 -264,-282c-34,-157 65,-341 214,-396c233,-87 473,102 455,358c-6,80 -40,160 -93,219c-71,78 -208,123 -312,101zm160,-66c63,-21 130,-84 163,-150c55,-112 29,-260 -60,-346c-53,-52 -101,-72 -182,-76c-93,-5 -157,21 -218,89c-54,60 -76,121 -76,208c0,116 58,208 162,260c71,36 137,40 211,15z" id="svg_12"/>
   <path d="m6030,-2479c0,-35 70,-95 133,-115c100,-31 96,-15 -14,59c-126,85 -119,81 -119,56z" id="svg_13"/>
   <path d="m3980,-2201c-59,-26 -105,-72 -138,-134c-36,-69 -37,-179 -3,-245c50,-97 125,-149 227,-158c160,-12 293,129 281,298c-5,77 -32,135 -88,190c-71,69 -189,90 -279,49zm167,-34c90,-27 163,-126 163,-222c0,-105 -83,-212 -181,-232c-112,-22 -215,35 -259,146c-7,20 -11,60 -8,102c3,58 9,77 33,112c36,50 68,75 121,94c51,18 70,18 131,0z" id="svg_14"/>
   <path d="m3940,-2516c0,-28 65,-80 115,-93c26,-7 49,-10 52,-8c4,5 -152,117 -162,117c-3,0 -5,-7 -5,-16z" id="svg_15"/>
   <path d="m8010,-2500c-30,-10 -155,-51 -277,-90c-165,-53 -223,-76 -223,-88c0,-13 -2,-13 -19,2c-18,16 -22,16 -70,-9c-29,-14 -54,-32 -58,-41c-3,-8 4,-36 16,-64c11,-27 24,-73 29,-102l8,-53l68,0c64,0 69,-2 79,-25c6,-14 11,-79 11,-145c1,-127 -20,-229 -64,-316c-11,-21 -16,-39 -11,-39c5,0 35,28 68,63c110,118 171,285 159,441c-3,43 -8,81 -10,84c-3,2 -37,-7 -76,-22c-39,-14 -73,-26 -76,-26c-2,0 -4,26 -4,58c0,37 -9,78 -25,117c-20,48 -21,55 -6,36c25,-32 41,-88 41,-140c0,-49 8,-51 95,-21c32,11 61,20 66,20c8,0 113,-211 166,-334c19,-45 41,-110 48,-146c11,-49 21,-71 43,-90c26,-23 28,-28 20,-70c-5,-25 -7,-94 -6,-155c5,-142 22,-181 158,-340c209,-245 251,-348 268,-668c5,-75 11,-139 14,-143c13,-12 92,9 114,31c46,46 41,245 -11,449c-35,141 -43,153 -288,460c-37,46 -73,101 -81,123c-31,89 -28,209 9,356c14,55 14,61 -9,127c-14,39 -44,136 -67,216c-35,122 -40,152 -31,178c29,89 49,133 70,149c44,36 19,180 -39,221c-28,19 -30,19 -99,-4z" id="svg_16"/>
   <path d="m1427,-2514c-117,-42 -186,-142 -186,-271c-1,-148 118,-275 257,-275c79,0 128,18 182,67c68,61 94,120 94,208c0,57 -5,82 -27,128c-61,124 -199,186 -320,143zm204,-71c125,-88 133,-280 18,-379c-183,-156 -449,59 -345,279c46,97 110,137 213,132c61,-2 78,-7 114,-32z" id="svg_17"/>
   <path d="m1360,-2825c0,-22 45,-75 76,-90c37,-18 104,-32 104,-22c0,7 -142,105 -165,113c-8,4 -15,3 -15,-1z" id="svg_18"/>
   <path d="m2405,-2805c-140,-31 -277,-100 -398,-200c-116,-96 -191,-207 -250,-370c-14,-38 -113,-311 -222,-605c-108,-294 -240,-652 -292,-795l-96,-260l-63,-62c-221,-216 -264,-395 -264,-1113c0,-503 36,-760 135,-964c53,-107 102,-158 221,-227l103,-60l3,-417c4,-461 5,-473 70,-527c54,-46 90,-50 433,-50c354,0 386,4 441,59c55,55 57,73 61,524l5,412l1756,-2l1757,-3l5,-425l5,-425l25,-43c35,-62 73,-81 182,-93c115,-14 608,-5 660,10c54,17 94,59 112,121c13,45 16,117 16,455l0,401l96,55c216,122 301,291 349,697c34,281 28,886 -11,1150c-19,125 -60,245 -110,321c-20,29 -71,90 -114,135l-78,81l-285,760l-284,760l-40,-3c-34,-3 -44,1 -66,27c-35,42 -65,126 -91,254c-19,96 -26,114 -64,163c-70,91 -214,186 -365,242l-72,27l-1605,2c-1303,1 -1616,-1 -1665,-12zm3250,-301c77,-17 76,-17 123,-8c39,8 72,-16 72,-52c0,-15 16,-36 47,-61c67,-54 128,-142 153,-220c34,-102 252,-705 393,-1083c68,-184 130,-358 137,-387c16,-62 5,-98 -36,-113c-17,-7 -897,-9 -2514,-8c-2375,3 -2490,4 -2507,21c-33,33 -20,89 85,372c240,651 353,960 401,1103c55,164 80,209 158,285c57,55 87,77 157,113c103,54 53,52 1716,53c1368,1 1553,-1 1615,-15zm-3425,-2705c170,-78 273,-271 242,-454c-24,-147 -112,-268 -240,-328c-61,-29 -75,-32 -167,-32c-92,0 -106,3 -168,32c-172,82 -272,283 -233,469c19,94 49,155 107,218c120,131 300,169 459,95zm3903,26c127,-33 217,-106 274,-222c32,-65 37,-86 41,-164c5,-99 -6,-156 -45,-236c-34,-68 -126,-156 -200,-191c-51,-23 -70,-27 -158,-27c-97,0 -104,2 -177,38c-353,174 -299,696 82,803c61,17 115,17 183,-1z" id="svg_19"/>
   <path d="m5563,-3178c-117,-21 -217,-42 -224,-49c-17,-17 -3,-43 22,-43c41,0 444,71 452,79c15,15 3,46 -18,48c-11,0 -115,-15 -232,-35z" id="svg_20"/>
   <path d="m4922,-3279c-117,-21 -218,-43 -224,-49c-18,-18 -1,-42 29,-42c48,1 436,69 446,79c15,15 3,46 -18,47c-11,1 -116,-15 -233,-35z" id="svg_21"/>
   <path d="m5633,-3362c-200,-65 -213,-71 -213,-94c0,-18 5,-24 23,-24c12,0 117,31 232,68c198,64 210,69 210,92c0,18 -6,25 -20,27c-11,1 -116,-30 -232,-69z" id="svg_22"/>
   <path d="m4430,-3356c-41,-7 -132,-23 -202,-35c-130,-22 -156,-36 -125,-66c11,-11 51,-7 241,25c224,38 251,47 239,79c-6,16 -52,15 -153,-3z" id="svg_23"/>
   <path d="m5240,-3481c-14,-6 -104,-36 -200,-66c-96,-31 -181,-62 -189,-69c-17,-15 -7,-44 15,-44c27,0 428,131 442,144c7,7 10,20 6,29c-7,19 -36,21 -74,6z" id="svg_24"/>
   <path d="m5665,-3568c-207,-96 -233,-114 -202,-141c20,-16 440,176 445,203c4,16 -13,37 -28,35c-3,0 -99,-44 -215,-97z" id="svg_25"/>
   <path d="m4455,-3736c-110,-36 -206,-71 -213,-78c-16,-16 -5,-46 17,-45c9,0 113,33 231,72c184,62 215,75 215,92c0,34 -40,27 -250,-41z" id="svg_26"/>
   <path d="m5127,-3834c-108,-51 -202,-97 -208,-103c-16,-16 -4,-43 18,-43c10,0 111,42 223,94c180,83 205,98 205,118c0,16 -6,24 -20,25c-11,1 -109,-40 -218,-91z" id="svg_27"/>
   <path d="m4520,-4125c-159,-73 -206,-99 -208,-115c-2,-11 3,-23 13,-26c16,-7 408,166 434,191c17,17 7,45 -16,45c-10,0 -110,-43 -223,-95z" id="svg_28"/>
   <path d="m7035,-2890c-148,-49 -271,-89 -273,-90c-1,0 4,-13 13,-30c8,-16 15,-38 15,-49c0,-11 3,-22 8,-24c4,-3 135,37 292,87c262,84 285,94 294,118c13,37 -14,78 -52,77c-15,0 -148,-40 -297,-89z" id="svg_29"/>
   <path d="m6305,-2927c-155,-49 -166,-62 -121,-151c34,-68 63,-165 80,-261c14,-80 25,-101 55,-101c17,0 227,67 253,81c24,13 24,76 -1,197c-19,88 -76,226 -108,258c-20,19 -32,17 -158,-23z" id="svg_30"/>
   <path d="m6591,-2921c-25,-5 -52,-15 -60,-24c-13,-13 -13,-21 8,-67c13,-29 30,-80 38,-113c8,-33 17,-73 21,-89c12,-51 34,-54 106,-18c75,36 82,50 73,141c-5,64 -46,154 -76,171c-23,12 -48,11 -110,-1z" id="svg_31"/>
   <path d="m900,-3200c-323,-116 -414,-545 -168,-791c251,-252 660,-128 753,227c61,235 -80,495 -307,566c-81,25 -205,24 -278,-2zm282,-80c119,-45 215,-168 239,-307c30,-172 -68,-357 -229,-431c-48,-22 -71,-26 -147,-26c-77,-1 -98,3 -147,26c-160,74 -261,263 -230,428c48,257 282,399 514,310z" id="svg_32"/>
   <path d="m760,-3765c0,-59 84,-137 179,-165c131,-40 126,-24 -20,76c-167,113 -159,109 -159,89z" id="svg_33"/>
  </g>
 </g>
</svg>